<svg width="600" height="400" xmlns="http://www.w3.org/2000/svg">
 <g id="Layer_1">
  <title>Layer 1</title>
  <g>
   <g id="svg_77">
    <title>Layer 1</title>
    <g id="svg_87" stroke="null">
     <g id="svg_88" stroke="null">
      <title stroke="null">Layer 14</title>
      <g stroke-width="0" id="svg_89" stroke="null">
       <g id="svg_90" stroke="null">
        <g id="svg_91" stroke="null">
         <g id="svg_92" stroke="null">
          <g id="svg_93" stroke="null">
           <g id="svg_94" stroke="null">
            <g id="svg_95" stroke="null">
             <g id="svg_96" stroke="null">
              <path id="svg_97" d="m397.41534,321.20646l0,-0.45473c0,-1.66733 -2.31551,-8.36695 -3.89683,-11.42877c-4.57455,-8.63979 -11.46461,-15.24846 -21.74322,-20.73549c-13.44127,-7.24529 -31.23118,-11.61066 -54.55573,-13.42956c-2.48495,-0.18189 -4.96988,-0.36378 -5.36521,-0.36378l-0.84714,0l0,4.36537l0.84714,0.06063c0.4518,0.03032 2.54142,0.18189 4.63103,0.36378c20.89609,1.54607 38.86534,5.19227 51.06414,11.74031c12.19879,6.57836 20.24051,15.17687 23.12077,26.36312c0.33885,1.12166 1.15165,2.82186 -0.11791,3.06438l1.17378,0.06902l5.6892,0.3857l-0.00001,0.00002l-0.00001,0z" fill="#5e8f80" stroke="#fff"/>
             </g>
            </g>
           </g>
          </g>
         </g>
        </g>
       </g>
      </g>
     </g>
    </g>
    <g stroke-width="0" id="svg_78" stroke="null">
     <g id="svg_79" stroke="null">
      <g id="svg_80" stroke="null">
       <g id="svg_81" stroke="null">
        <g id="svg_82" stroke="null">
         <g id="svg_83" stroke="null">
          <g id="svg_84" stroke="null">
           <g id="svg_85" stroke="null">
            <path id="svg_86" d="m199.91797,321.20645l0,-0.45473c0,-1.66732 2.34098,-8.36695 3.93969,-11.42877c4.62484,-8.63978 11.59067,-15.24846 21.9823,-20.73548c13.58906,-7.24529 31.57458,-11.61066 55.15559,-13.42956c2.51226,-0.18189 5.02453,-0.36378 5.42421,-0.36378l0.85646,0l0,4.36536l-0.85646,0.06063c-0.45677,0.03032 -2.56935,0.18189 -4.68194,0.36378c-21.12585,1.54607 -39.29269,5.19227 -51.62561,11.74031c-12.33292,6.57836 -20.46306,15.17688 -23.37499,26.36312c-0.34259,1.12166 -1.16432,2.82187 0.1192,3.06438l-1.18668,0.06903l-5.75176,0.3857l0,0.00001l-0.00001,0z" fill="#5e8f80" stroke="#fff"/>
           </g>
          </g>
         </g>
        </g>
       </g>
      </g>
     </g>
    </g>
   </g>
  </g>
  <g id="svg_1"/>
  <g id="svg_22"/>
 </g>

</svg>