<svg width="600" height="400.0000000000001" xmlns="http://www.w3.org/2000/svg">
 <g id="Layer_1">
  <title>Layer 1</title>
  <g id="svg_8">
   <g id="svg_169">
    <title>Layer 1</title>
    <g stroke="null" id="svg_182">
     <g stroke="null" id="svg_183">
      <title stroke="null">Layer 15</title>
      <line stroke="#5e8f80" fill="none" x1="-6.58899" y1="360.93354" x2="19.72098" y2="360.59401" id="svg_185" stroke-width="3"/>
      <line stroke="#5e8f80" fill="none" x1="-6.58899" y1="366.53871" x2="19.72098" y2="366.40102" id="svg_184" stroke-width="3"/>
     </g>
    </g>
    <line stroke="#5e8f80" fill="none" x1="353.97766" y1="360.93354" x2="424.79442" y2="360.59401" id="svg_181" stroke-width="3"/>
    <line stroke="#5e8f80" fill="none" x1="353.97766" y1="366.53871" x2="424.94572" y2="366.40102" id="svg_180" stroke-width="3"/>
    <g stroke="null" id="svg_175">
     <g stroke="null" id="svg_176">
      <title stroke="null" id="svg_179">Layer 15</title>
      <line stroke="#5e8f80" fill="none" x1="87.6002" y1="360.8924" x2="155.9024" y2="360.55287" id="svg_178" stroke-width="3"/>
      <line stroke="#5e8f80" fill="none" x1="87.6002" y1="366.49757" x2="155.9024" y2="366.35988" id="svg_177" stroke-width="3"/>
     </g>
    </g>
    <g stroke="null" id="svg_170">
     <g stroke="null" id="svg_171">
      <title stroke="null" id="svg_174">Layer 15</title>
      <line stroke="#5e8f80" fill="none" x1="188.75832" y1="360.46625" x2="244.33243" y2="360.12672" id="svg_173" stroke-width="3"/>
      <line stroke="#5e8f80" fill="none" x1="188.75832" y1="366.07142" x2="244.33243" y2="365.93373" id="svg_172" stroke-width="3"/>
     </g>
    </g>
   </g>
  </g>
  <g id="svg_2">
   <g id="svg_145">
    <title>Layer 1</title>
    <g id="svg_3">
     <g id="svg_148">
      <title>Layer 1</title>
      <g id="svg_158" stroke="null">
       <g id="svg_159" stroke="null">
        <title stroke="null">Layer 14</title>
        <g stroke-width="0" id="svg_160" stroke="null">
         <g id="svg_161" stroke="null">
          <g id="svg_162" stroke="null">
           <g id="svg_163" stroke="null">
            <g id="svg_164" stroke="null">
             <g id="svg_165" stroke="null">
              <g id="svg_166" stroke="null">
               <g id="svg_167" stroke="null">
                <path id="svg_168" d="m396.98981,323.44714l0,-0.45473c0,-1.66733 -2.31551,-8.36695 -3.89683,-11.42877c-4.57455,-8.63979 -11.46461,-15.24846 -21.74322,-20.73549c-13.44127,-7.24529 -31.23118,-11.61066 -54.55573,-13.42956c-2.48495,-0.18189 -4.96988,-0.36378 -5.36521,-0.36378l-0.84714,0l0,4.36537l0.84714,0.06063c0.4518,0.03032 2.54142,0.18189 4.63103,0.36378c20.89609,1.54607 38.86534,5.19227 51.06414,11.74031c12.19879,6.57836 20.24051,15.17687 23.12077,26.36312c0.33885,1.12166 1.15165,2.82186 -0.11791,3.06438l1.17378,0.06902l5.6892,0.3857l-0.00001,0.00002l-0.00001,0z" fill="#5e8f80" stroke="#fff"/>
               </g>
              </g>
             </g>
            </g>
           </g>
          </g>
         </g>
        </g>
       </g>
      </g>
      <g stroke-width="0" id="svg_149" stroke="null">
       <g id="svg_150" stroke="null">
        <g id="svg_151" stroke="null">
         <g id="svg_152" stroke="null">
          <g id="svg_153" stroke="null">
           <g id="svg_154" stroke="null">
            <g id="svg_155" stroke="null">
             <g id="svg_156" stroke="null">
              <path id="svg_157" d="m199.49244,323.44713l0,-0.45473c0,-1.66732 2.34098,-8.36695 3.93969,-11.42877c4.62484,-8.63978 11.59067,-15.24846 21.9823,-20.73548c13.58906,-7.24529 31.57458,-11.61066 55.15559,-13.42956c2.51226,-0.18189 5.02453,-0.36378 5.42421,-0.36378l0.85646,0l0,4.36536l-0.85646,0.06063c-0.45677,0.03032 -2.56935,0.18189 -4.68194,0.36378c-21.12585,1.54607 -39.29269,5.19227 -51.62561,11.74031c-12.33292,6.57836 -20.46306,15.17688 -23.37499,26.36312c-0.34259,1.12166 -1.16432,2.82187 0.1192,3.06438l-1.18668,0.06903l-5.75176,0.3857l0,0.00001l-0.00001,0z" fill="#5e8f80" stroke="#fff"/>
             </g>
            </g>
           </g>
          </g>
         </g>
        </g>
       </g>
      </g>
     </g>
    </g>
    <g id="svg_147"/>
    <g id="svg_146"/>
   </g>
  </g>
  <g id="svg_1"/>
  <g id="svg_22"/>
  <g id="svg_12"/>
  <g id="svg_11"/>
  <g id="svg_6">
   <g id="svg_25">
    <title>Layer 1</title>
   </g>
  </g>
 </g>

</svg>