<svg width="600" height="400" xmlns="http://www.w3.org/2000/svg">
 <g id="Layer_13">
  <title>Layer 13</title>
  <g stroke="null" stroke-width="0" id="svg_30">
   <g stroke="null" id="svg_29">
    <g stroke="null" id="svg_28">
     <g stroke="null" id="svg_27">
      <g stroke="null" id="svg_26">
       <g stroke="null" id="svg_25">
        <g stroke="null" id="svg_24">
         <g stroke="null" id="svg_23">
          <path stroke="#fff" id="svg_22" d="m199.79714,324.50622l0,-0.45473c0,-1.66732 2.15351,-8.36695 3.62419,-11.42877c4.25447,-8.63978 10.66246,-15.24846 20.2219,-20.73548c12.50081,-7.24529 29.046,-11.61066 50.73858,-13.42956c2.31107,-0.18189 4.62215,-0.36378 4.98982,-0.36378l0.78787,0l0,4.36536l-0.78787,0.06063c-0.42019,0.03032 -2.36359,0.18189 -4.307,0.36378c-19.43403,1.54607 -36.14602,5.19227 -47.49129,11.74031c-11.34527,6.57836 -18.82432,15.17688 -21.50306,26.36312c-0.31515,1.12166 -1.07108,2.82187 0.10965,3.06438l-1.09165,0.06903l-5.29114,0.3857z" fill="#5e8f80"/>
         </g>
        </g>
       </g>
      </g>
     </g>
    </g>
   </g>
  </g>
 </g>

  <g id="Layer_14">
  <title>Layer 14</title>
  <g stroke="null" stroke-width="0" id="svg_4">
   <g stroke="null" id="svg_6">
    <g stroke="null" id="svg_7">
     <g stroke="null" id="svg_12">
      <g stroke="null">
       <g stroke="null">
        <g stroke="null">
         <g stroke="null">
          <path stroke="#fff" d="m400.71441,324.35972l0,-0.45473c0,-1.66733 -2.16112,-8.36695 -3.63701,-11.42877c-4.26954,-8.63979 -10.7002,-15.24846 -20.29348,-20.73549c-12.54506,-7.24529 -29.14882,-11.61066 -50.91819,-13.42956c-2.31926,-0.18189 -4.63851,-0.36378 -5.00748,-0.36378l-0.79066,0l0,4.36537l0.79066,0.06063c0.42168,0.03032 2.37197,0.18189 4.32225,0.36378c19.50283,1.54607 36.27397,5.19227 47.6594,11.74031c11.38543,6.57836 18.89096,15.17687 21.57918,26.36312c0.31626,1.12166 1.07486,2.82186 -0.11005,3.06438l1.09552,0.06902l5.30987,0.3857z" fill="#5e8f80"/>
         </g>
        </g>
       </g>
      </g>
     </g>
    </g>
   </g>
  </g>
 </g>

  <g id="Layer_1">
  <title>Layer 1</title>
  <g stroke="null" id="svg_25">
   <g stroke="null" id="svg_27">
    <title stroke="null">Layer 15</title>
    <line stroke="#5e8f80" fill="none" x1="0.16709" y1="359.33953" x2="28.77063" y2="359" id="svg_29" stroke-width="3"/>
    <line stroke="#5e8f80" fill="none" x1="0.16709" y1="364.9447" x2="28.77063" y2="364.80701" id="svg_28" stroke-width="3"/>
   </g>
  </g>
  <line stroke="#5e8f80" fill="none" x1="360.55435" y1="359.33953" x2="435.04082" y2="359" id="svg_47" stroke-width="3"/>
  <line stroke="#5e8f80" fill="none" x1="360.55435" y1="364.9447" x2="435.43298" y2="364.80701" id="svg_48" stroke-width="3"/>
  <g stroke="null" id="svg_51">
   <g stroke="null" id="svg_50">
    <title stroke="null" id="svg_45">Layer 15</title>
    <line stroke="#5e8f80" fill="none" x1="96.64985" y1="359.29839" x2="164.95205" y2="358.95886" id="svg_46" stroke-width="3"/>
    <line stroke="#5e8f80" fill="none" x1="96.64985" y1="364.90356" x2="164.95205" y2="364.76587" id="svg_49" stroke-width="3"/>
   </g>
  </g>
  <g stroke="null" id="svg_56">
   <g stroke="null" id="svg_55">
    <title stroke="null" id="svg_52">Layer 15</title>
    <line stroke="#5e8f80" fill="none" x1="198.0873" y1="358.87224" x2="240.25875" y2="358.53271" id="svg_53" stroke-width="3"/>
    <line stroke="#5e8f80" fill="none" x1="198.0873" y1="364.47741" x2="240.25875" y2="364.33972" id="svg_54" stroke-width="3"/>
   </g>
  </g>
 </g>

</svg>