<svg width="600" height="400" xmlns="http://www.w3.org/2000/svg">
 <g id="Layer_1">
  <title>Layer 1</title>
  <g id="svg_3">
   <g id="svg_4">
    <title>Layer 14</title>
    <g stroke="null" stroke-width="0" id="svg_5">
     <g stroke="null" id="svg_6">
      <g stroke="null" id="svg_7">
       <g stroke="null" id="svg_8">
        <g id="svg_57" stroke="null">
         <g id="svg_58" stroke="null">
          <g id="svg_59" stroke="null">
           <g id="svg_60" stroke="null">
            <path id="svg_61" stroke="#fff" d="m398.73697,323.6785l0,-0.45473c0,-1.66733 -2.16112,-8.36695 -3.63701,-11.42877c-4.26954,-8.63979 -10.7002,-15.24846 -20.29348,-20.73549c-12.54506,-7.24529 -29.14882,-11.61066 -50.91819,-13.42956c-2.31926,-0.18189 -4.63851,-0.36378 -5.00748,-0.36378l-0.79066,0l0,4.36537l0.79066,0.06063c0.42168,0.03032 2.37197,0.18189 4.32225,0.36378c19.50283,1.54607 36.27397,5.19227 47.6594,11.74031c11.38543,6.57836 18.89096,15.17687 21.57918,26.36312c0.31626,1.12166 1.07486,2.82186 -0.11005,3.06438l1.09552,0.06902l5.30987,0.3857l-0.00001,0.00002z" fill="#5e8f80"/>
           </g>
          </g>
         </g>
        </g>
       </g>
      </g>
     </g>
    </g>
   </g>
  </g>
  <g stroke="null" stroke-width="0" id="svg_12">
   <g stroke="null" id="svg_18">
    <g stroke="null" id="svg_20">
     <g stroke="null" id="svg_31">
      <g stroke="null" id="svg_32">
       <g stroke="null" id="svg_33">
        <g stroke="null" id="svg_34">
         <g stroke="null" id="svg_35">
          <path stroke="#fff" id="svg_36" d="m200.00503,323.67849l0,-0.45473c0,-1.66732 2.15351,-8.36695 3.62419,-11.42877c4.25447,-8.63978 10.66246,-15.24846 20.2219,-20.73548c12.50081,-7.24529 29.046,-11.61066 50.73858,-13.42956c2.31107,-0.18189 4.62215,-0.36378 4.98982,-0.36378l0.78787,0l0,4.36536l-0.78787,0.06063c-0.42019,0.03032 -2.36359,0.18189 -4.307,0.36378c-19.43403,1.54607 -36.14602,5.19227 -47.49129,11.74031c-11.34527,6.57836 -18.82432,15.17688 -21.50306,26.36312c-0.31515,1.12166 -1.07108,2.82187 0.10965,3.06438l-1.09165,0.06903l-5.29114,0.3857l0,0.00001z" fill="#5e8f80"/>
         </g>
        </g>
       </g>
      </g>
     </g>
    </g>
   </g>
  </g>
 </g>

</svg>